<?xml version="1.0" encoding="utf-8"?>
<!-- Generator: Adobe Illustrator 16.0.0, SVG Export Plug-In . SVG Version: 6.00 Build 0)  -->
<!DOCTYPE svg PUBLIC "-//W3C//DTD SVG 1.1//EN" "http://www.w3.org/Graphics/SVG/1.1/DTD/svg11.dtd">
<svg version="1.1" xmlns="http://www.w3.org/2000/svg" xmlns:xlink="http://www.w3.org/1999/xlink" x="0px" y="0px" width="337.3px"
	 height="108.185px" viewBox="0 0 337.3 108.185" enable-background="new 0 0 337.3 108.185" xml:space="preserve">
<g id="Siatka" display="none">
</g>
<g id="Warstwa_1">
</g>
<g id="Pulpit">
</g>
<g id="Prowadnice">
</g>
<g id="Page_1">
	<g id="Warstwa_1_1_">
		<polygon fill-rule="evenodd" clip-rule="evenodd" fill="#231F20" points="1.186,26.77 32.726,9.162 42.235,38.447 52.198,5.027 
			75.718,0 76.199,42.902 82.744,41.843 86.652,18.521 119.737,13.996 120.511,20.331 124.616,13.813 159.683,11.398 
			159.743,20.089 195.836,18.883 220.401,11.34 233.861,27.151 233.68,19.124 285.898,32.086 286.617,46.571 296.375,48.265 
			308.761,36.6 336.467,51.937 336.552,71.606 321.597,71.161 321.005,83.682 337.3,85.934 329.018,107.212 301.332,103.654 
			296.703,82.81 292.503,83.147 288.73,107.787 273.033,105.021 272.179,73.213 269.243,72.979 266.135,72.789 266.487,102.737 
			242.249,104.433 243.305,75.444 236.494,77.011 233.242,99.934 198.055,100.127 196.885,95.467 193.834,94.689 158.541,93.206 
			158.17,83.142 142.762,103.424 117.267,100.856 96.756,104.039 97.085,76.578 90.496,77.546 91.318,97.862 74.745,98.604 
			74.749,108.075 53.712,108.185 56.648,82.132 46.067,107.373 32.669,76.031 33.787,101.857 10.157,102.494 11.878,48.452 
			0,51.083 1.186,26.77 		"/>
		<path fill="#FFFFFF" d="M334.629,62.069c-0.055-1.216-0.097-2.34-0.196-3.42c-0.1-1.069-0.2-2.003-0.297-2.831
			c-0.102-0.861-0.199-1.732-0.298-2.592c-7.978-4.196-15.956-8.57-23.935-12.967c-0.299,0.222-0.563,0.399-0.826,0.609
			s-0.59,0.464-0.957,0.765c-0.358,0.297-0.789,0.609-1.22,0.997c5.574,2.833,11.146,5.748,16.717,8.633
			c-5.935-2.59-11.869-5.161-17.771-7.646c-0.264,0.189-0.494,0.41-0.727,0.608c-0.23,0.199-0.461,0.42-0.658,0.65
			c3.229,1.667,6.494,3.293,9.759,4.888c-3.495-1.394-6.956-2.79-10.42-4.207c-0.296,0.327-0.618,0.689-0.955,1.061
			c-0.356,0.394-0.688,0.769-1.021,1.154c-0.721,0.832-1.342,1.725-1.879,2.612c-0.552,0.906-1.088,1.71-1.583,2.475
			c0.858,6.65,1.779,13.26,2.638,19.764c0.854,6.482,1.78,12.923,2.67,19.291c-1.087-6.041-2.214-12.125-3.263-18.274
			c-1.061-6.208-2.178-12.492-3.232-18.809c-0.229,0.442-0.45,0.854-0.625,1.218c-0.188,0.383-0.362,0.673-0.496,0.966
			c-0.129,0.284-0.263,0.575-0.396,0.839c0.296,2.769,0.597,5.602,0.989,8.539c0.335,2.506,0.69,5.235,1.121,8.224
			c0.427,2.958,0.889,5.822,1.385,8.622c0.492,2.771,0.922,5.278,1.318,7.469c0.395,2.182,0.766,4.07,1.057,5.655
			c0.336,1.844,0.692,3.461,0.988,4.866c1.649,0.272,3.296,0.515,4.945,0.756c-0.494-2.948-0.988-5.927-1.483-8.906
			c0.825,3.043,1.683,6.074,2.538,9.063c6.133,0.935,12.267,1.794,18.432,2.602c0.361-0.63,0.751-1.324,1.186-2.099
			c0.355-0.633,0.745-1.401,1.188-2.275c0.447-0.888,0.924-1.836,1.385-2.886c0.494-1.121,0.936-2.283,1.352-3.451
			c0.409-1.149,0.718-2.246,1.021-3.219c0.355-1.137,0.692-2.213,0.99-3.273c-0.758-0.105-1.518-0.21-2.275-0.315
			c-0.23,0.557-0.428,1.134-0.625,1.721c-0.364-0.641-0.728-1.279-1.088-1.92c-1.781-0.209-3.529-0.431-5.276-0.649
			c-0.165,3.544-0.297,7.112-0.429,10.656c-0.297-3.577-0.594-7.195-0.891-10.814c-1.088-0.137-2.176-0.283-3.264-0.431
			c0.197,1.04,0.337,2.099,0.461,3.138c0.107,0.88,0.232,1.856,0.33,2.895c0.098,1.049,0.133,2.003,0.197,2.885
			c-2.604,0.578-5.209,1.176-7.78,1.784c-0.165-1.68-0.368-3.505-0.528-5.497c-0.137-1.721-0.33-3.715-0.526-5.991
			c-0.198-2.275-0.412-4.73-0.627-7.405c-0.212-2.655-0.345-5.109-0.428-7.386c-0.083-2.265-0.1-4.248-0.1-5.926
			c0-1.992,0.033-3.766,0.067-5.402c4.153,0.116,8.308,0.336,12.494,0.608c-0.065,0.672-0.182,1.554-0.362,2.687
			c-0.183,1.135-0.405,2.211-0.626,3.271c-0.273,1.3-0.562,2.623-0.857,3.997c2.604,0.031,5.209,0.084,7.847,0.146
			c0.231-0.67,0.495-1.342,0.758-1.992c0.066,0.294,0.132,0.609,0.231,0.964c0.1,0.358,0.131,0.703,0.131,1.071
			c0.396,0,0.825,0.021,1.254,0.043c0.066-1.365,0.163-2.719,0.263-4.061c0.099-1.333,0.198-2.676,0.264-3.986
			c0.166,2.696,0.364,5.381,0.562,8.076c0.395,0.011,0.792,0.031,1.188,0.043c0.065-0.733,0.111-1.541,0.164-2.392
			c0.045-0.703,0.082-1.543,0.099-2.445C334.712,63.989,334.675,63.064,334.629,62.069L334.629,62.069z M306.441,80.521
			c-0.363-2.905-0.728-5.812-1.12-8.696c-0.397-2.905-0.759-5.79-1.088-8.655c0.263-1.509,0.525-3.01,0.822-4.521
			C305.517,65.972,305.979,73.251,306.441,80.521L306.441,80.521z M283.724,45.169c-0.032-2.317-0.066-4.646-0.066-6.966
			c-5.44-1.688-10.848-3.387-16.254-4.887c2.737,0.598,5.442,1.075,8.11,1.573c2.672,0.499,5.375,1.08,8.145,1.764
			c-0.033-0.925-0.066-1.837-0.066-2.75c-15.924-4.374-31.816-8.287-47.708-11.55c0,1.679,0,3.325,0,4.983
			c1.748,0.598,3.495,1.187,5.242,1.752c-1.747-0.083-3.494-0.198-5.242-0.315c0,1.144,0,2.287,0,3.399
			c2.208,0.63,4.417,1.179,6.627,1.615c2.208,0.435,4.417,0.975,6.627,1.584c-4.418-0.556-8.836-1.121-13.254-1.71
			c0,2.506,0,5.035,0,7.541c2.144,0.525,4.319,1.051,6.495,1.563c-2.176,0.21-4.352,0.41-6.495,0.641c0,1.741,0,3.494,0,5.244
			c4.088,0.284,8.176,0.589,12.264,0.894c-0.264,4.343-0.56,8.696-0.791,13.038c-0.23,4.343-0.479,8.708-0.725,13.062
			c-0.248,4.374-0.528,8.748-0.758,13.133c-0.231,4.384-0.495,8.758-0.726,13.143c1.352-0.083,2.703-0.167,4.056-0.262
			c0.363-8.276,0.725-16.532,1.088-24.798c0.033,8.233,0.099,16.479,0.165,24.703c1.252-0.063,2.506-0.124,3.758-0.21
			c0.166-2.728,0.364-5.434,0.562-8.161c0.23,2.707,0.495,5.402,0.758,8.087c0.857-0.052,1.748-0.115,2.638-0.156
			c0.066-4.741,0.132-9.482,0.198-14.213c0.065-4.73,0.131-9.473,0.197-14.205c0.066-4.73,0.133-9.472,0.198-14.191
			c0.066-4.73,0.132-9.463,0.231-14.193c0.066,4.751,0.198,9.513,0.264,14.234c0.066,4.73,0.181,9.463,0.264,14.193
			c0.082,4.72,0.198,9.452,0.263,14.171c0.066,4.722,0.198,9.432,0.297,14.152c1.186-0.042,2.374-0.095,3.593-0.146
			c-0.066-5.077-0.098-10.176-0.132-15.253c-0.032-5.087-0.066-10.196-0.099-15.295c-0.032-5.077-0.066-10.176-0.099-15.273
			c-0.032-5.099-0.066-10.206-0.099-15.294C270.074,41.487,276.9,43.271,283.724,45.169L283.724,45.169z M234.796,60.328
			c-0.759-0.797-1.712-1.703-2.803-2.653c-0.953-0.832-2.107-1.745-3.462-2.822c-1.349-1.073-2.937-2.209-4.747-3.42
			c-1.718-1.148-3.293-2.18-4.716-2.969c-1.445-0.804-2.673-1.422-3.757-1.931c-1.223-0.571-2.309-1.06-3.297-1.416
			c-0.066-0.787-0.112-1.73-0.165-2.791c-0.046-0.932-0.066-2.055-0.066-3.419c0-1.374,0.034-2.917,0.099-4.656
			c0.067-1.816,0.165-3.494,0.264-5.047c0.098-1.563,0.209-2.937,0.33-4.123c0.143-1.405,0.23-2.707,0.363-3.859
			c0.429,0.157,0.891,0.377,1.385,0.66c0.395,0.229,0.89,0.566,1.45,0.977c0.561,0.409,1.217,0.988,1.88,1.656
			c0.689,0.696,1.294,1.348,1.78,1.983c0.47,0.612,0.828,1.204,1.121,1.689c0.334,0.553,0.594,1.09,0.792,1.572
			c0,0.305-0.014,0.649-0.065,1.092c-0.047,0.396-0.114,0.9-0.198,1.563c-0.082,0.639-0.168,1.469-0.331,2.443
			c-0.167,1.007-0.363,1.879-0.56,2.644c-0.199,0.776-0.391,1.439-0.593,2.026c-0.227,0.649-0.43,1.227-0.628,1.719
			c1.716,0.525,3.463,1.008,5.209,1.5c1.088-3.63,2.209-7.259,3.331-10.866c-0.461,3.828-0.924,7.647-1.385,11.464
			c0.396,0.146,0.791,0.284,1.22,0.41c0.297-1.321,0.676-2.586,1.121-3.798c0.445-1.211,0.825-2.475,1.155-3.756
			c-0.363,2.634-0.692,5.278-1.022,7.899c0.758,0.23,1.549,0.44,2.34,0.649c0.133-0.565,0.257-1.238,0.363-2.034
			c0.091-0.682,0.213-1.471,0.297-2.402c0.081-0.902,0.151-1.972,0.231-3.115c0.084-1.217,0.164-2.297,0.164-3.263
			c0-0.996,0.015-1.824,0-2.506c-0.019-0.839-0.099-1.586-0.164-2.267c-0.429-0.682-0.959-1.446-1.584-2.288
			c-0.528-0.711-1.156-1.57-1.911-2.569c-0.761-1.004-1.649-2.057-2.671-3.219c-0.988-1.123-1.848-2.141-2.572-2.948
			c-0.759-0.849-1.357-1.508-1.878-2.089c-0.6-0.666-1.088-1.152-1.483-1.541c-3.792,0.733-7.551,1.489-11.31,2.454
			c0.066,3.42,0.149,6.871,0.231,10.26c0.083,3.408,0,6.745-0.166,9.976c-0.396-6.599-0.758-13.196-1.121-19.804
			c-0.396,0.072-0.791,0.167-1.122,0.272c-0.329,0.104-0.659,0.23-0.988,0.388c-0.264,0.776-0.527,1.573-0.759,2.349
			c-0.132-0.293-0.255-0.569-0.395-0.87c-0.124-0.266-0.264-0.566-0.396-0.912c-0.99,0.325-1.813,0.65-2.505,0.933
			c-0.693,0.283-1.256,0.52-1.716,0.724c-0.529,0.235-0.956,0.494-1.318,0.713c-0.198,2.666-0.368,5.497-0.528,8.488
			c-0.136,2.549-0.23,5.443-0.362,8.664c-0.132,3.21-0.198,6.535-0.198,9.935c1.385,0.765,2.866,1.608,4.417,2.527
			c1.35,0.8,2.867,1.725,4.583,2.749c1.745,1.04,3.528,2.139,5.407,3.356c-0.296-0.525-0.574-1.088-0.824-1.721
			c-0.244-0.614-0.461-1.322-0.627-2.109c1.188,1.333,2.414,2.67,3.627,3.997c1.194,1.306,2.339,2.74,3.627,3.978
			c0.756,0.724,1.516,1.195,2.143,1.729c0.592,0.505,1.089,0.943,1.451,1.279c0.461,0.429,0.823,0.776,1.088,1.092
			c-0.726,3.986-1.418,8.004-2.111,12.01c-0.989,4.104-1.979,8.193-2.967,12.316c-3.594,0.902-7.188,1.835-10.782,2.779
			c0.231-3.251,0.408-6.167,0.66-8.748c0.109-1.121,0.199-2.203,0.297-3.252c0.099-1.059,0.215-1.985,0.33-2.812
			c0.115-0.83,0.229-1.5,0.363-2.014c0.13-0.504,0.231-0.78,0.329-0.776c0.264,0.007,0.513,0.371,0.759,1.144
			c0.248,0.779,0.444,1.628,0.659,2.581c0.247,1.093,0.461,2.348,0.659,3.701c1.451-1.236,2.902-2.475,4.385-3.701
			c-0.33-2.225-0.659-4.449-0.956-6.693c0.331,0.997,0.659,2.015,0.956,3c0.296,0.986,0.593,1.983,0.956,3.012
			c0.99-0.819,1.979-1.648,3-2.466c-0.132-0.525-0.332-1.123-0.527-1.764c-0.167-0.544-0.403-1.172-0.66-1.856
			c-0.27-0.721-0.571-1.454-0.923-2.276c-0.339-0.793-0.755-1.563-1.253-2.339c-0.492-0.767-0.965-1.44-1.417-2.076
			c-0.504-0.709-1.055-1.438-1.615-2.161c-0.527,0.188-1.22,0.463-1.978,0.766c-0.659,0.264-1.483,0.62-2.44,1.049
			c-0.988,0.441-2.115,0.958-3.429,1.646c-0.664,0.35-1.254,0.731-1.846,1.028c-0.562,0.28-1.088,0.578-1.549,0.86
			c-0.33,5.485-0.659,10.994-0.99,16.48c-0.132-5.173-0.263-10.334-0.396-15.536c-0.89,0.576-1.58,1.053-2.01,1.395
			c-0.294,0.234-0.528,0.408-0.693,0.598c0,0.871,0.013,1.982,0.066,3.253c0.045,1.09,0.148,2.402,0.231,3.975
			c0.081,1.552,0.198,3.356,0.396,5.382c0.198,2.056,0.394,3.935,0.593,5.728c0.197,1.773,0.395,3.325,0.593,4.679
			c0.23,1.563,0.462,3,0.692,4.279c1.188,0.158,2.506,0.282,4.056,0.368c1.286,0.07,2.835,0.137,4.649,0.167
			c1.78,0.031,3.759-0.019,5.968-0.072c0.791-0.021,1.549-0.026,2.275-0.055c0.725-0.025,1.45-0.02,2.143-0.009
			c0.495-2.328,0.974-4.64,1.483-6.977c0.512-2.342,1.088-4.616,1.748-6.881c0,0,0.033,0.01,0.066,0.01
			c-0.164,2.308-0.446,4.593-0.856,6.851c-0.414,2.274-0.825,4.574-1.188,6.902c0.23,0,0.429-0.004,0.593,0
			c0.199,0.006,0.396-0.021,0.594-0.095c0.396-1.342,0.823-2.716,1.252-4.069c-0.065,1.362-0.132,2.728-0.164,4.092
			c0.428-0.074,0.823-0.106,1.22-0.106c0.396,0,0.791,0,1.154-0.063c0.725-3.902,1.518-7.837,2.374-11.771
			c0.859-3.943,1.682-7.898,2.473-11.843c-0.429,3.841-1.005,7.751-1.715,11.707c-0.708,3.952-1.352,7.909-1.912,11.917
			c0.758-0.063,1.385-0.105,1.946-0.115c0.56-0.011,1.055-0.058,1.45-0.114c0.462-0.069,0.89-0.117,1.253-0.138
			c0.297-1.279,0.603-2.811,0.923-4.615c0.273-1.541,0.592-3.42,0.956-5.633c0.363-2.204,0.715-4.765,1.055-7.67
			c0.253-2.161,0.447-4.218,0.626-6.104c0.182-1.898,0.362-3.641,0.495-5.233c-2.012-3.243-4.023-6.463-6.034-9.725
			c2.078,2.475,4.154,4.951,6.232,7.427c0.066-0.945,0.148-1.796,0.198-2.529c0.049-0.735,0.086-1.342,0.132-1.867
			C234.75,61.291,234.796,60.77,234.796,60.328L234.796,60.328z M201.99,41.508c-0.494-0.984-0.793-2.013-0.889-3.104
			c-0.102-1.132-0.067-2.267,0.032-3.431c0.099-1.152,0.214-2.318,0.363-3.48c0.148-1.168,0.198-2.31,0.198-3.411
			C201.793,32.572,201.891,37.041,201.99,41.508L201.99,41.508z M195.461,75.381c-7.055,1.018-14.11,2.141-21.167,3.262
			c0.034-5.812,0.066-11.633,0.132-17.433c3.297,0.239,6.595,0.491,9.892,0.724c0-0.641,0-1.281,0-1.922
			c-0.923-0.396-1.813-0.785-2.703-1.204c0.362,0.155,0.791,0.114,1.318-0.149c0.528-0.262,0.989-0.345,1.385-0.345
			c0-1.038,0-2.078,0-3.127c-3.495-0.282-6.957-0.565-10.419-0.87c1.781-0.084,3.528-0.214,5.243-0.42
			c1.712-0.204,3.461-0.365,5.242-0.515c0.033-2.716,0.066-5.454,0.099-8.18c-4.781,0.84-9.561,1.708-14.342,2.569
			c0-4.207,0-8.423,0-12.63c7.484,0.575,14.968,1.164,22.485,1.794c0.1-1.187,0.198-2.371,0.297-3.566
			c-0.792-0.242-1.615-0.465-2.473-0.641c-0.889-0.181-1.748-0.335-2.604-0.483c0.89-0.04,1.747-0.104,2.637-0.146
			c0.857-0.041,1.714-0.009,2.605-0.031c0.099-0.943,0.197-1.92,0.296-2.874c-2.572-0.179-5.076-0.406-7.617-0.808
			c-2.503-0.396-5.044-0.735-7.616-1.049c2.571,0.011,5.144,0.037,7.682,0.063c2.54,0.026,5.111,0.063,7.716,0.136
			c0.132-1.624,0.297-3.262,0.461-4.888c-12.792-0.303-25.585-0.336-38.344,0.146c-0.066,1.899-0.1,3.787-0.132,5.676
			c3.132,0.241,6.264,0.482,9.429,0.724c-3.166,0.42-6.297,0.83-9.429,1.238c-0.034,1.185-0.066,2.359-0.1,3.535
			c0.726,0.713,1.484,1.416,2.242,2.108c-0.758,0-1.516,0.021-2.242,0.021c-0.066,2.308-0.132,4.606-0.198,6.881
			c2.144-0.544,4.319-1.11,6.495-1.667c-0.231,8.486-0.495,16.983-0.691,25.449c-0.199,8.476-0.462,16.981-0.661,25.447
			c1.32,0.032,2.638,0.063,3.99,0.095c-0.033-3.388-0.033-6.733,0-10.112c0.033-3.356,0.065-6.735,0.099-10.145
			c0.032-3.365,0.116-6.785,0.165-10.164c0.049-3.389,0.033-6.788,0.033-10.186c0.132,6.776,0.297,13.564,0.428,20.318
			c0.133,6.756,0.331,13.521,0.495,20.288c0.594,0,1.187-0.011,1.78,0c0.165-3.399,0.331-6.797,0.528-10.195
			c0.23,3.429,0.461,6.88,0.725,10.311c8.044,0.253,16.09,0.515,24.168,0.767c0.198-1.375,0.396-2.749,0.593-4.132
			c-2.769,0.219-5.573,0.246-8.408,0.063c-2.802-0.184-5.637-0.305-8.441-0.326c2.804-0.294,5.639-0.515,8.507-0.609
			c2.869-0.093,5.705-0.241,8.507-0.429C194.176,83.626,194.802,79.481,195.461,75.381L195.461,75.381z M192.792,82.105
			c-0.1,0.388-0.198,0.787-0.297,1.144c-3.692,0.063-7.352,0.135-11.012,0.209c0-0.105,0-0.221,0-0.324
			c1.846-0.325,3.726-0.525,5.604-0.63C188.966,82.398,190.879,82.263,192.792,82.105L192.792,82.105z M157.117,13.962
			c-10.847,0.618-21.694,1.667-32.508,2.969c-0.066,3.21-0.1,6.377-0.132,9.567c4.417-0.305,8.869-0.409,13.319-0.483
			c-4.451,0.745-8.902,1.521-13.319,2.486c0,0.87,0,1.73,0,2.612c2.604-0.158,5.209-0.284,7.847-0.294
			c-2.637,0.431-5.243,0.935-7.847,1.479c-0.066,3.031-0.133,6.085-0.166,9.117c4.88-0.684,9.792-1.207,14.705-1.732
			c-0.099,7.627-0.198,15.254-0.297,22.88c0,0.22,0,0.44,0,0.671c0.265-0.787,0.462-1.595,0.561-2.464
			c0.099-0.861,0.264-1.681,0.527-2.499c-0.23,4.512-0.46,9.043-0.691,13.555c-0.23,4.498-0.462,9.021-0.692,13.51
			c-0.066,2.948-0.132,5.886-0.166,8.823c-0.922-0.578-1.917-1.211-2.934-1.92c-0.862-0.602-1.846-1.343-2.901-2.171
			c-1.056-0.829-2.17-1.727-3.265-2.687c-1.048-0.919-2.007-1.912-2.901-2.905c-0.853-0.946-1.617-1.836-2.275-2.644
			c-0.759-0.932-1.417-1.846-2.044-2.695c0.297-0.945,0.642-1.893,1.088-2.843c0.377-0.802,0.857-1.638,1.417-2.477
			s1.188-1.604,1.946-2.244c0.23,0.703,0.379,1.561,0.461,2.56c0.083,1.016,0.186,1.97,0.23,2.905
			c0.054,1.09,0.067,2.161,0.034,3.283c0.495-0.409,0.989-0.817,1.517-1.259c0-0.336-0.034-0.702-0.066-1.05
			c-0.033-0.365-0.033-0.701,0-1.037c0.032-0.315,0.062-0.632,0.165-0.934c0.093-0.273,0.23-0.535,0.428-0.766
			c0.099,0.503,0.117,1.036,0.165,1.562c0.05,0.556,0.099,1.071,0.132,1.554c0.561-0.451,1.122-0.902,1.714-1.385
			c-0.395-2.79-0.758-5.602-1.121-8.412c0.626,2.59,1.253,5.182,1.912,7.763c1.155-0.914,2.308-1.848,3.462-2.771
			c-0.231-0.891-0.48-1.808-0.758-2.738c-0.25-0.832-0.546-1.745-0.856-2.77c-0.315-1.03-0.728-2.033-1.123-3.062
			c-0.396-1.038-0.729-1.992-1.121-2.813c-0.399-0.838-0.76-1.551-1.088-2.171c-0.365-0.69-0.726-1.333-1.088-1.888
			c-0.692,0.282-1.456,0.653-2.275,1.152c-0.73,0.446-1.553,1.025-2.505,1.732c-0.927,0.687-1.943,1.607-3.066,2.676
			c-1.218,1.154-2.252,2.215-3.132,3.271c-0.868,1.042-1.584,1.972-2.177,2.781c-0.692,0.943-1.252,1.825-1.681,2.622
			c0.066,1.101,0.199,2.359,0.429,3.787c0.198,1.227,0.507,2.726,0.857,4.531c0.341,1.761,0.811,3.813,1.418,6.104
			c0.612,2.313,1.166,4.226,1.614,5.739c0.441,1.486,0.836,2.681,1.155,3.598c0.374,1.077,0.725,1.888,0.988,2.454
			c1.023,0.126,2.044,0.23,3.066,0.348c-1.352-3.391-2.703-6.776-4.022-10.155c1.682,3.451,3.396,6.892,5.111,10.354
			c0.725,0.072,1.483,0.136,2.242,0.188c-0.429-0.859-0.857-1.739-1.253-2.621c0.99,0.944,1.979,1.888,3,2.842
			c4.056,0.41,8.111,0.819,12.199,1.238c0.461-0.472,0.992-1.037,1.583-1.646c0.497-0.513,1.058-1.142,1.681-1.899
			c0.629-0.763,1.286-1.541,2.044-2.391c0.265-4.501,0.527-9.012,0.824-13.513c0.133,4.009,0.264,8.015,0.396,12.013
			c0.066-0.063,0.102-0.136,0.133-0.21c0.034-0.084,0.103-0.154,0.164-0.23c0.434-0.542,0.862-1.131,1.253-1.689
			c0.4-0.573,0.758-1.123,1.121-1.689c-0.099-4.981-0.231-9.986-0.297-14.968c-0.066-4.982-0.166-9.977-0.231-14.969
			c0.33,4.615,0.659,9.239,0.99,13.846c0.33,4.604,0.659,9.22,1.022,13.837c0.725-1.135,1.28-2.061,1.648-2.75
			c0.225-0.421,0.428-0.767,0.593-1.111c-0.363-4.636-0.726-9.273-1.055-13.9c-0.33-4.625-0.692-9.271-1.022-13.909
			c-0.329-4.615-0.693-9.263-1.022-13.887c-0.33-4.627-0.659-9.273-0.989-13.921c2.209,0.01,4.451,0.021,6.693,0.021
			c0-1.574,0.033-3.146,0.066-4.73c-0.33-0.063-0.659-0.13-1.056-0.18c-0.362-0.045-0.726-0.091-1.088-0.156
			c-0.33-0.06-0.694-0.186-1.022-0.325c-0.364-0.153-0.659-0.347-0.956-0.598c1.352-0.022,2.736-0.043,4.122-0.063
			c0-1.061,0.032-2.109,0.066-3.168c-2.505-0.097-4.979-0.169-7.451-0.085c-2.506,0.085-4.979,0.2-7.452,0.189
			c2.473-0.399,4.944-0.804,7.452-1.049c2.503-0.247,4.978-0.463,7.451-0.84C157.051,15.882,157.084,14.928,157.117,13.962
			L157.117,13.962z M117.783,16.071c-6.594,0.828-13.188,1.908-19.782,3.115c-0.956,0.661-1.912,1.27-2.868,1.908
			c-0.132-0.419-0.265-0.859-0.363-1.299c-0.956,0.146-1.912,0.293-2.868,0.429c-0.725,5.569-1.467,11.06-2.209,16.489
			c-0.741,5.427-1.45,10.826-2.176,16.239c0.561-5.391,1.104-10.794,1.681-16.217c0.577-5.423,1.089-10.857,1.55-16.28
			c-0.495,0.093-0.99,0.188-1.451,0.271c-0.758,5.466-1.517,10.932-2.242,16.375c-0.726,5.445-1.448,10.858-2.177,16.26
			c-0.722,5.359-1.45,10.71-2.176,16.018c-0.725,5.309-1.45,10.606-2.176,15.872c-3.396-0.198-6.792-0.377-10.155-0.566
			c0.166,1.259,0.33,2.518,0.527,3.756c1.055,0.031,2.144,0.031,3.231,0.041c-0.461,0.326-0.99,0.577-1.484,0.756
			c-0.526,0.188-1.021,0.398-1.549,0.692c0.034,0.408,0.1,0.818,0.165,1.216c2.045-0.021,4.023-0.021,5.935-0.031
			c1.946-0.01,3.924-0.01,5.968-0.03c-3.892,0.429-7.782,0.849-11.672,1.259c0.165,1.069,0.33,2.15,0.495,3.23
			c5.44-0.241,10.88-0.494,16.321-0.756c-0.199-6.986-0.363-13.972-0.527-20.97c3.791-0.377,7.582-0.765,11.374-1.164
			c-0.132,4.784-0.231,9.556-0.33,14.309c-0.099,4.762-0.198,9.535-0.297,14.286c1.78-0.25,3.561-0.503,5.341-0.775
			c-0.166-6.22-0.346-12.421-0.527-18.641c-0.181-6.232-0.331-12.463-0.495-18.776c0.429,6.23,0.842,12.389,1.187,18.504
			c0.346,6.136,0.593,12.378,0.725,18.703c0.89-0.115,1.78-0.21,2.704-0.325c-0.231-4.331-0.429-8.643-0.626-12.966
			c0.264,2.192,0.546,4.331,0.89,6.379c0.348,2.073,0.659,4.195,0.923,6.356c1.912-0.293,3.857-0.577,5.802-0.859
			c-0.33-5.759-0.692-11.509-0.988-17.257c-0.297-5.748-0.644-11.497-0.957-17.245c-0.312-5.728-0.659-11.455-0.956-17.183
			c-0.296-5.716-0.626-11.445-0.923-17.162c2.176-0.063,4.353-0.124,6.528-0.198c0.033-1.448,0.1-2.928,0.165-4.396
			c-0.461,0-0.954-0.182-1.417-0.451c-0.459-0.266-0.923-0.388-1.451-0.44c0.561,0,1.086-0.089,1.55-0.272
			c0.458-0.182,0.923-0.336,1.384-0.451c0.033-0.733,0.099-1.469,0.165-2.224c-4.154,0.295-8.275,0.557-12.397,0.996
			c4.155-0.891,8.309-1.635,12.463-2.382C117.652,18.839,117.718,17.454,117.783,16.071L117.783,16.071z M106.013,63.222
			c-1.055-0.052-2.111-0.093-3.165-0.135c-2.275-0.021-4.517-0.043-6.759-0.095c0,1.385-0.017,2.738-0.066,4.112
			c-0.05,1.385-0.166,2.747-0.33,4.092c0.065-1.428-0.017-2.824-0.165-4.166c-0.149-1.345-0.231-2.685-0.231-4.038
			c-0.691-0.021-1.384-0.021-2.077-0.021c0.593-6.892,1.22-13.795,1.847-20.749c2.11-0.651,4.253-1.322,6.396-2.003
			c0-0.851,0-1.701,0-2.54c0.133,0.347,0.231,0.713,0.297,1.08c0.066,0.368,0.231,0.661,0.396,0.945
			c0.197-2.445,0.395-4.889,0.626-7.345c0.066,2.456,0.132,4.879,0.23,7.322c0.231-0.072,0.462-0.146,0.692-0.21
			C104.463,47.361,105.222,55.281,106.013,63.222L106.013,63.222z M73.207,3.86c-4.121,0.892-8.242,1.93-12.363,3.096
			c-2.605,7.888-5.209,15.659-7.781,23.243c1.978-7.446,3.989-15.01,6-22.709c-1.385,0.356-2.77,0.733-4.154,1.09
			c-2.176,7.376-4.371,14.659-6.529,21.8c-2.127,7.042-4.318,14.065-6.461,20.968c-1.945-6.587-3.904-13.021-5.836-19.353
			c-1.893-6.205-3.89-12.242-5.802-18.211c-1.417,0.88-2.835,1.741-4.253,2.592c1.418,4.288,2.847,8.651,4.253,13.079
			c1.428,4.498,2.835,9.075,4.253,13.722c-1.781-4.479-3.556-8.855-5.309-13.133c-1.741-4.252-3.527-8.36-5.275-12.294
			c-6.198,4.132-12.396,8.149-18.627,12.062c-0.033,1.281-0.066,2.582-0.1,3.871c1.847-0.618,3.66-1.259,5.506-1.897
			c-0.923,0.439-1.871,0.954-2.769,1.531c-0.916,0.587-1.813,1.153-2.737,1.72c-0.066,0.777-0.098,1.511-0.131,2.267
			c4.78-1.669,9.528-3.356,14.275-5.015c-4.747,2.15-9.495,4.259-14.275,6.377c-0.033,1.994-0.066,3.986-0.066,5.969
			c3.659-1.268,7.352-2.56,11.044-3.849c-0.065,4.855-0.165,9.734-0.197,14.57c-0.034,4.846-0.116,9.703-0.166,14.539
			s-0.132,9.673-0.165,14.498c-0.033,4.813-0.099,9.65-0.132,14.464c1.088-0.052,2.176-0.093,3.264-0.136c0-4.531,0-9.052,0-13.584
			c0-4.521,0-9.053,0-13.584c0.363,4.469,0.728,8.957,1.089,13.446c0.363,4.522,0.726,9.075,1.088,13.627
			c0.956-0.063,1.912-0.146,2.901-0.229c0-0.525,0.018-1.059,0.067-1.647c0.049-0.598,0.131-1.134,0.329-1.689
			c0.43,1.092,0.89,2.182,1.353,3.273c1.583-0.063,3.165-0.126,4.781-0.189c-0.166-6.871-0.297-13.753-0.429-20.602
			c-0.132-6.86-0.264-13.721-0.396-20.571c1.483,3.828,3.01,7.707,4.484,11.665c1.493,4.005,3.034,8.066,4.55,12.188
			c0.198-0.449,0.467-0.877,0.792-1.311c0.334-0.448,0.658-0.892,0.955-1.291c0.33-0.439,0.665-0.855,0.956-1.29
			c0.302-0.447,0.528-0.911,0.726-1.331c-0.89,2.549-1.747,5.077-2.605,7.573c0.527,1.5,1.056,3,1.583,4.511
			c2.704-7.667,5.461-15.519,8.144-23.508c2.725-8.112,5.44-16.438,8.176-24.903c-1.286,4.5-2.571,8.98-3.824,13.395
			c-1.253,4.417-2.531,8.784-3.792,13.103c-1.245,4.263-2.538,8.499-3.792,12.684c-1.251,4.176-2.505,8.308-3.758,12.398
			c1.154,3.356,2.341,6.735,3.527,10.164c2.836-7.593,5.729-15.339,8.539-23.286c2.861-8.092,5.738-16.407,8.606-24.873
			c-0.528,4.469-1.088,8.917-1.583,13.344c-0.494,4.416-1.005,8.824-1.517,13.196c-0.51,4.355-1.055,8.696-1.549,13.018
			c-0.494,4.312-1.023,8.613-1.517,12.894c3.264,0.082,6.529,0.156,9.825,0.24c0.331-5.119,0.694-10.269,1.022-15.409
			c0.33-5.171,0.692-10.344,1.055-15.547c-0.099,5.182-0.165,10.345-0.231,15.494c-0.066,5.15-0.132,10.322-0.198,15.462
			c1.22,0.042,2.473,0.095,3.725,0.115c0.099-8.435,0.231-16.898,0.331-25.354c0.098-8.455,0.247-16.932,0.362-25.418
			c0.116-8.476,0.265-16.973,0.363-25.47C72.91,20.917,73.076,12.399,73.207,3.86L73.207,3.86z M292.169,49.988
			c0.006,0,0.01,0.002,0.015,0.002c-0.133,1.19-0.264,2.38-0.396,3.558c-0.626,4.27-1.222,8.564-1.813,12.858
			c-0.595,4.305-1.187,8.637-1.78,12.979c0.297-0.184,0.594-0.367,0.889-0.563c-0.46,4.343-0.957,8.672-1.384,13.027
			c-0.429,4.369-0.924,8.748-1.353,13.128c-1.943-0.269-3.891-0.551-5.802-0.847c-0.1-4.76-0.231-9.533-0.297-14.317
			c-0.065-4.771-0.165-9.545-0.231-14.329c-0.133,4.736-0.264,9.473-0.363,14.206c-0.099,4.75-0.23,9.497-0.329,14.246
			c-1.122-0.148-2.241-0.309-3.329-0.479c-0.363-9.313-0.727-18.673-1.057-28.034c-0.271-7.706-0.565-15.44-0.844-23.183
			l-0.066,0.008l-0.355-3.897l2.914,0.063l1.209,18.143l0.41-18.306c1.628,0.252,5.936,0.505,7.581,0.757
			c0.231,1.596,0.462,3.19,0.725,4.787c0.198-1.302,0.43-2.602,0.659-3.916c0.066-0.134,0.133-0.245,0.133-0.342
			C287.304,49.469,292.128,50.056,292.169,49.988L292.169,49.988z"/>
	</g>
</g>
</svg>
